<svg width="14" height="14" viewBox="0 0 14 14" fill="none" xmlns="http://www.w3.org/2000/svg">
<path d="M11.045 5.00098C10.9052 5.00098 10.7653 5.01598 10.6258 5.04719C9.93715 5.20202 9.42312 5.72595 9.21848 6.378C8.84939 5.97441 8.33357 5.73255 7.78984 5.73255C7.6527 5.73255 7.51587 5.74785 7.38234 5.77846C6.33449 6.01402 5.76886 7.18189 5.9618 8.29696C6.3744 10.687 11.2695 11.1566 11.2695 11.1566C11.2695 11.1566 10.8488 10.7545 11.5107 9.7268C12.2459 8.58533 13.1989 8.18143 12.9676 6.61506C12.8229 5.64523 11.9548 5.00098 11.045 5.00098Z" fill="#FF5F56"/>
<path d="M10.0022 1.01388C8.43467 0.886049 7.23978 1.65723 6.54842 2.66607C6.21234 1.82827 5.10868 1.33976 4.15835 1.34816C2.74172 1.35956 1.12373 2.39661 1.00881 4.33297C0.85757 6.90548 2.6901 7.51042 3.76196 9.18902C4.378 10.1528 4.71919 11.4642 4.71919 11.4642C4.71919 11.4642 5.56328 11.1581 6.78968 10.5948C5.97108 10.0613 5.36674 9.30844 5.202 8.33832C4.93404 6.77404 5.70792 5.29679 7.13296 4.97272C7.3226 4.92951 7.67879 4.93431 7.88013 4.94931C8.28823 4.97752 8.5694 5.09245 8.93548 5.27519C9.30997 4.79808 9.8327 4.45419 10.4268 4.31946C10.6135 4.27512 10.8046 4.25227 10.9964 4.25135C11.7234 4.25338 12.4205 4.54114 12.9372 5.05254C12.9672 4.9013 12.9885 4.74646 12.9972 4.59043C13.0999 2.64267 11.8465 1.16512 10.0022 1.01388Z" fill="#FF5F56"/>
</svg>
