<svg width="24" height="24" viewBox="0 0 24 24" fill="none" xmlns="http://www.w3.org/2000/svg">
<rect width="24" height="24" rx="8" fill="#6BA4FF"/>
<path d="M18.5 8V16C18.5 16.2652 18.3947 16.5196 18.2071 16.7071C18.0196 16.8946 17.7652 17 17.5 17H9.18752L7.15002 18.76L7.14439 18.7644C6.96441 18.917 6.73598 19.0005 6.50002 19C6.35331 18.9997 6.20845 18.9673 6.07564 18.905C5.9029 18.8254 5.75674 18.6977 5.65466 18.5372C5.55257 18.3767 5.49889 18.1902 5.50002 18V8C5.50002 7.73478 5.60537 7.48043 5.79291 7.29289C5.98045 7.10536 6.2348 7 6.50002 7H17.5C17.7652 7 18.0196 7.10536 18.2071 7.29289C18.3947 7.48043 18.5 7.73478 18.5 8Z" fill="white"/>
</svg>
