<svg width="60" height="60" viewBox="0 0 60 60" fill="none" xmlns="http://www.w3.org/2000/svg">
    <g clip-path="url(#clip0_12905_48877)">
        <g filter="url(#filter0_d_12905_48877)">
            <path fill-rule="evenodd" clip-rule="evenodd"
                  d="M26.7793 36.2317L22.5971 55.1166C22.3992 55.998 21.8566 56.7624 21.0916 57.2377C20.3265 57.7131 19.4032 57.8596 18.5294 57.6441C16.8677 57.1835 15.8066 55.5535 16.0532 53.8401L20.1209 24.4397C20.2446 23.5189 19.7337 22.6304 18.8778 22.2775C18.022 21.9245 17.0367 22.1962 16.4803 22.9385L12.5143 28.2692C11.082 30.182 8.42754 30.6707 6.41269 29.3925L4.89746 28.4428C4.67742 28.3028 4.59839 28.0184 4.71441 27.7841L11.2533 14.437C16.1447 4.98578 25.9225 0.691624 35.863 2.27449L36.5291 2.39193C45.4069 4.14329 51.4221 12.4865 50.7661 21.5446C50.4603 26.276 49.5003 30.9417 47.9137 35.4074C47.527 37.0921 45.9221 38.2005 44.2171 37.9604H44.1866C43.3089 37.8207 42.5239 37.3324 42.0085 36.6054C41.493 35.8784 41.2903 34.9738 41.446 34.0952L41.9544 31.195L41.4326 31.1716L40.2381 36.6608C39.8482 38.3227 38.2288 39.3913 36.5474 39.0963C35.6341 38.9354 34.8273 38.4055 34.3168 37.6313C33.8063 36.8571 33.637 35.9069 33.8489 35.0041L34.8035 30.875L34.7915 30.8745L33.1427 37.2514C32.7001 39.1915 30.8543 40.439 28.9386 40.0927C28.1207 39.944 27.8237 39.4834 27.3881 38.8079C27.3547 38.7561 27.3205 38.7031 27.2852 38.6488C26.8215 37.9365 26.6421 37.0717 26.7793 36.2317ZM26.869 35.8268L28.0326 30.572L28.1573 30.5776L26.869 35.8268Z"
                  fill="white"/>
            <path d="M28.0326 30.572L22.5971 55.1166C22.3992 55.998 21.8566 56.7624 21.0916 57.2377C20.3265 57.7131 19.4032 57.8596 18.5294 57.6441C16.8677 57.1835 15.8066 55.5535 16.0532 53.8401L20.1209 24.4397C20.2446 23.5189 19.7337 22.6304 18.8778 22.2775C18.022 21.9245 17.0367 22.1962 16.4803 22.9385L12.5143 28.2692C11.082 30.182 8.42754 30.6707 6.41269 29.3925L4.89746 28.4428C4.67742 28.3028 4.59839 28.0184 4.71441 27.7841L11.2533 14.437C16.1447 4.98578 25.9225 0.691624 35.863 2.27449V2.27449L36.5291 2.39193C45.4069 4.14329 51.4221 12.4865 50.7661 21.5446C50.4603 26.276 49.5003 30.9417 47.9137 35.4074C47.527 37.0921 45.9221 38.2005 44.2171 37.9604H44.1866C43.3089 37.8207 42.5239 37.3324 42.0085 36.6054C41.493 35.8784 41.2903 34.9738 41.446 34.0952L41.9544 31.195"
                  stroke="#012269" stroke-width="2.50409" stroke-linecap="round" stroke-linejoin="round"/>
            <path d="M34.6612 30.4709L33.849 35.0039C33.6371 35.9067 33.8064 36.8569 34.3169 37.6311C34.8274 38.4053 35.6342 38.9352 36.5475 39.0961C38.2289 39.3911 39.8483 38.3225 40.2382 36.6606L41.9689 31.2401"
                  stroke="#012269" stroke-width="2.50409" stroke-linecap="round"/>
            <path d="M34.6611 30.4712L33.1427 37.2514C32.7001 39.1915 30.8543 40.439 28.9386 40.0927C28.0581 39.9326 27.7813 39.411 27.2852 38.6488C26.7891 37.8867 26.6184 36.95 26.8127 36.0559L28.1226 30.4712"
                  stroke="#012269" stroke-width="2.50409" stroke-linecap="round"/>
        </g>
    </g>
    <defs>
        <filter id="filter0_d_12905_48877" x="1.40918" y="-1.29883" width="52.6582" height="62.292"
                filterUnits="userSpaceOnUse" color-interpolation-filters="sRGB">
            <feFlood flood-opacity="0" result="BackgroundImageFix"/>
            <feColorMatrix in="SourceAlpha" type="matrix" values="0 0 0 0 0 0 0 0 0 0 0 0 0 0 0 0 0 0 127 0"
                           result="hardAlpha"/>
            <feOffset/>
            <feGaussianBlur stdDeviation="1"/>
            <feColorMatrix type="matrix" values="0 0 0 0 0 0 0 0 0 0 0 0 0 0 0 0 0 0 0.2 0"/>
            <feBlend mode="normal" in2="BackgroundImageFix" result="effect1_dropShadow_12905_48877"/>
            <feBlend mode="normal" in="SourceGraphic" in2="effect1_dropShadow_12905_48877" result="shape"/>
        </filter>
        <clipPath id="clip0_12905_48877">
            <rect width="60" height="60" fill="white" transform="matrix(1 0 0 -1 0 60)"/>
        </clipPath>
    </defs>
</svg>
