<svg width="24" height="24" viewBox="0 0 24 24" fill="none" xmlns="http://www.w3.org/2000/svg">
<rect width="24" height="24" rx="8" fill="url(#paint0_radial)"/>
<path d="M12 7.5C10.775 7.5 10.6187 7.505 10.1537 7.53125C9.68999 7.5575 9.37124 7.63375 9.09249 7.74375C8.80249 7.8575 8.55624 8.0125 8.31124 8.2575C8.06624 8.5025 7.91124 8.74875 7.79749 9.03875C7.68749 9.3175 7.61124 9.63625 7.58499 10.1C7.55874 10.565 7.55374 10.7212 7.55374 11.9462C7.55374 13.1712 7.55874 13.3275 7.58499 13.7925C7.61124 14.2562 7.68749 14.575 7.79749 14.8537C7.91124 15.1437 8.06624 15.39 8.31124 15.635C8.55624 15.88 8.80249 16.035 9.09249 16.1487C9.37124 16.2587 9.68999 16.335 10.1537 16.3612C10.6187 16.3875 10.775 16.3925 12 16.3925C13.225 16.3925 13.3812 16.3875 13.8462 16.3612C14.31 16.335 14.6287 16.2587 14.9075 16.1487C15.1975 16.035 15.4437 15.88 15.6887 15.635C15.9337 15.39 16.0887 15.1437 16.2025 14.8537C16.3125 14.575 16.3887 14.2562 16.415 13.7925C16.4412 13.3275 16.4462 13.1712 16.4462 11.9462C16.4462 10.7212 16.4412 10.565 16.415 10.1C16.3887 9.63625 16.3125 9.3175 16.2025 9.03875C16.0887 8.74875 15.9337 8.5025 15.6887 8.2575C15.4437 8.0125 15.1975 7.8575 14.9075 7.74375C14.6287 7.63375 14.31 7.5575 13.8462 7.53125C13.3812 7.505 13.225 7.5 12 7.5ZM12 8.3C13.2075 8.3 13.3525 8.305 13.8125 8.33125C14.2387 8.35 14.4712 8.425 14.6275 8.4875C14.835 8.57125 14.9825 8.6725 15.1375 8.8275C15.2925 8.9825 15.3937 9.13 15.4775 9.3375C15.54 9.49375 15.615 9.72625 15.6337 10.1525C15.66 10.6125 15.665 10.7575 15.665 11.965C15.665 13.1725 15.66 13.3175 15.6337 13.7775C15.615 14.2037 15.54 14.4362 15.4775 14.5925C15.3937 14.8 15.2925 14.9475 15.1375 15.1025C14.9825 15.2575 14.835 15.3587 14.6275 15.4425C14.4712 15.505 14.2387 15.58 13.8125 15.5987C13.3525 15.625 13.2075 15.63 12 15.63C10.7925 15.63 10.6475 15.625 10.1875 15.5987C9.76124 15.58 9.52874 15.505 9.37249 15.4425C9.16499 15.3587 9.01749 15.2575 8.86249 15.1025C8.70749 14.9475 8.60624 14.8 8.52249 14.5925C8.45999 14.4362 8.38499 14.2037 8.36624 13.7775C8.33999 13.3175 8.33499 13.1725 8.33499 11.965C8.33499 10.7575 8.33999 10.6125 8.36624 10.1525C8.38499 9.72625 8.45999 9.49375 8.52249 9.3375C8.60624 9.13 8.70749 8.9825 8.86249 8.8275C9.01749 8.6725 9.16499 8.57125 9.37249 8.4875C9.52874 8.425 9.76124 8.35 10.1875 8.33125C10.6475 8.305 10.7925 8.3 12 8.3ZM12 9.72375C11.4093 9.72375 10.8427 9.95843 10.4253 10.3759C10.0078 10.7933 9.77312 11.36 9.77312 11.9506C9.77312 12.5413 10.0078 13.108 10.4253 13.5254C10.8427 13.9428 11.4093 14.1775 12 14.1775C12.5906 14.1775 13.1573 13.9428 13.5747 13.5254C13.9921 13.108 14.2268 12.5413 14.2268 11.9506C14.2268 11.36 13.9921 10.7933 13.5747 10.3759C13.1573 9.95843 12.5906 9.72375 12 9.72375ZM12 13.395C11.6161 13.395 11.2479 13.2426 10.9764 12.9711C10.7049 12.6996 10.5525 12.3314 10.5525 11.9475C10.5525 11.5636 10.7049 11.1954 10.9764 10.9239C11.2479 10.6524 11.6161 10.5 12 10.5C12.3839 10.5 12.7521 10.6524 13.0236 10.9239C13.2951 11.1954 13.4475 11.5636 13.4475 11.9475C13.4475 12.3314 13.2951 12.6996 13.0236 12.9711C12.7521 13.2426 12.3839 13.395 12 13.395ZM14.3075 9.63625C14.3075 9.79996 14.2424 9.95693 14.1267 10.0727C14.0109 10.1884 13.854 10.2537 13.6902 10.2537C13.5265 10.2537 13.3695 10.1884 13.2538 10.0727C13.1381 9.95693 13.0727 9.79996 13.0727 9.63625C13.0727 9.47254 13.1381 9.31557 13.2538 9.19982C13.3695 9.08407 13.5265 9.01875 13.6902 9.01875C13.854 9.01875 14.0109 9.08407 14.1267 9.19982C14.2424 9.31557 14.3075 9.47254 14.3075 9.63625Z" fill="white"/>
<defs>
<radialGradient id="paint0_radial" cx="0" cy="0" r="1" gradientTransform="translate(8 18) scale(14)">
<stop stop-color="#FFDD55"/>
<stop offset="0.1" stop-color="#FFDD55"/>
<stop offset="0.5" stop-color="#FF543E"/>
<stop offset="1" stop-color="#C837AB"/>
</radialGradient>
</defs>
</svg>
